<svg xmlns="http://www.w3.org/2000/svg" width="72" height="72" viewBox="0 0 72 72">
    <g fill="none" fill-rule="evenodd">
        <path fill="#FFF" d="M39.905 1.88l20.336 9.794c2.468 1.188 4.26 3.436 4.87 6.106l5.022 22.005c.61 2.67-.03 5.473-1.738 7.614L54.322 65.046c-1.708 2.142-4.297 3.389-7.036 3.389H24.714c-2.739 0-5.328-1.247-7.036-3.389L3.605 47.4c-1.708-2.141-2.347-4.944-1.738-7.614L6.89 17.78c.61-2.67 2.401-4.918 4.869-6.106L32.095 1.88c2.468-1.189 5.342-1.189 7.81 0z"/>
        <path fill="#BFBFBF" d="M19.162 12.126c.258-.152.578-.167.852-.042s.472.374.53.67l.624 3.214 2.527 1.929c.248.188.384.487.365.797-.019.31-.19.59-.459.748l-9.272 5.427 1.984 3.742c3.533-3.072 8.13-4.935 13.144-4.935 2.579 0 4.993.497 7.352 1.38 2.194.882 4.28 2.151 6.035 3.752l2.743-2.594.768.773c4.499 4.524 6.967 10.537 6.967 16.993 0 12.965-10.314 23.558-23.097 23.944v1.545h5.487c.603 0 1.097.496 1.097 1.104 0 .606-.494 1.103-1.097 1.103H21.996c-.604 0-1.097-.497-1.097-1.103 0-.608.493-1.104 1.097-1.104h6.035v-1.6c-6.474-.386-12.509-3.365-16.733-8.386l-.659-.828 2.743-2.537c-2.523-3.421-4.06-7.614-4.06-12.194 0-5.329 2.07-10.19 5.442-13.814L8.12 17.583c-.268-.505-.076-1.132.43-1.4.507-.27 1.132-.075 1.4.43l.34.64zm26.26 17.178l-1.097 1.048c3.237 3.586 5.212 8.33 5.212 13.572 0 11.145-9.052 20.248-20.135 20.248-5.76 0-10.972-2.482-14.648-6.4l-1.097 1.049c4.114 4.413 9.82 6.896 15.8 6.896 11.96 0 21.671-9.765 21.561-21.793 0-5.461-1.975-10.593-5.596-14.62zm-2.8 2.444c-4.929-5.286-12.348-6.967-18.839-4.838.036.119.11.199.146.317.351-.026.896-.005 1.473.212 1.384.519 2.082 1.83 2.014 3.93-.028.855.26 1.566.449 1.768 1.043.234 5.042 1.786 4.992 3.342-.07.97-.404 1.659-.885 2.108-.883.823-2.29 1.003-3.228 1.124-.274.028-.507.02-.743.088-1.173.19-2.254-.085-3.142-.313-.349-.052-.735-.144-1.006-.194-.05.349-.11 1.009-.125 1.475-.093 1.67-.23 3.534-1.313 4.545-1.565 1.459-3.487.685-4.525.296-.191-.124-.421-.21-.5-.214 0 0-2.056-.194-3.325-.67-.484.527-1.377 1.66-2.19 2.72.638 3.178 2.098 6.191 4.509 8.696 4.778 5.124 11.846 6.832 18.132 5.045l-.113-.121c-.414-.445-.391-1.144.05-1.556l.361-.336.04-.038.007-.234c-.421-.21-.68-.648-.862-1.005-.076-.081-.148-.24-.186-.28l-.678-.726c-.225-.242-.33-.597-.28-.945.05-.349.293-.65.61-.794L35 54.546c.04-.038.118-.035.158-.072.276-.107.67-.248.868-.357-.26-.36-.404-.754-.471-1.068.002-.079-.073-.159-.071-.237-.193-.046-.464-.095-.697-.104-.715.44-1.508.877-1.668 1.027-.482.449-1.886 1.758-2.977.589l-1.003-1.077-.01-.129c-.008-.066-.018-.132-.03-.2l-.05-.201c-.146-.445-.425-.766-.805-.93l-.09-.033v-.036c.007-.242.093-.48.257-.673l.088-.092 1.083-1.01.04-.038.008-.233c.035-1.09.92-1.99 1.08-2.14.241-.224.595-.328.944-.276l2.051.35c.517-.33 1.071-.621 1.39-.843-.036-.118-.068-.314-.104-.432-.067-.314-.057-.625.146-.89l1.106-1.71c.205-.343.562-.524.95-.509l2.1.08.155.005 1.896.344 1.565-1.459.682-1.843c.085-.23.286-.418.524-.564l2.493-1.269c-.778-2.443-2.105-4.75-3.986-6.768zm4.541 8.891l-1.662.872-.6 1.69c-.082.153-.165.306-.285.418l-2.167 2.02c-.24.225-.595.328-.943.276l-2.36-.44-1.4-.052-.531.798c.135.628.108 1.483-.454 2.006-.401.375-1.788 1.14-2.383 1.468-.197.11-.433.178-.704.129l-1.818-.34c-.043.114-.084.151-.086.23-.03.932-.078 1.203-.72 1.802l-.28.262.526.564.281-.261c.401-.375 1.789-1.14 2.383-1.468.158-.072.316-.143.549-.135 1.244.047 2.092.313 2.506.757.338.363.442.795.547 1.15.038.04.07.236.107.276.716.767.67 2.166-.132 2.915-.482.449-1.349.806-1.78.906l-.04.037c.275-.106.586-.095.933.036.383.17.76.573.772 1.391-.017.545-.223.887-.386 1.114-.02.623-.07.971-.314 1.273l.038.041c1.776-.75 3.524-1.853 5.048-3.275 4.655-4.34 6.453-10.617 5.355-16.46zM25.341 50.75c.988.436 2.075.908 2.342.917.154.006.298.03.432.073l.04.015.002.085c.018.241.115.479.293.669l.69.739.006.067c.01.192.004.376-.002.543.03.101.085.438.145.64.174.741.379 1.584-.209 2.132-.552.515-1.455.517-1.589.513-.4-.014-.76-.26-.879-.666-.062-.136-.214-.576-.534-.988-.407.187-.773.14-1.004.032-.269.057-.711.276-1.052.464-.41.264-.92.125-1.196-.22l-.063-.091-1.14-1.845c-.2-.341-.176-.785.09-1.105l.086-.092 1.279-1.192c.052-.049.103-.097.169-.13l.07-.03 1.223-.558c.237-.092.571-.08.801.028zm-.401 1.925l-.68.31-.552.516.285.444c.746-.308 1.283-.356 1.547-.28.749-.375 1.274-.09 1.663.259l.004-.134c.003-.067.04-.166.01-.267-.631-.122-1.586-.523-2.277-.848zm-3.243-25.025c-1.62.756-3.173 1.827-4.537 3.099l.193-.177.983 1.854c.248.47.1 1.044-.326 1.337l-.104.063c-.093.05-.19.083-.288.102-.435.085-.893-.12-1.112-.531l-.674-1.272c-2.996 3.453-4.45 7.794-4.28 12.077 1.433-1.758 1.904-1.9 2.245-1.931l.074-.006c.351-.026.62.101.848.265.459.251 2.2.59 2.822.613.348.052.732.222 1.156.355.96.387 1.731.65 2.253.163.441-.411.531-2.004.603-3.053.093-1.67.215-3.067 1.434-3.45.785-.203 1.558-.019 2.446.21.732.222 1.505.407 2.21.278.236-.069.509-.098.782-.127 1.485-.177 1.996-.352 2.127-.776-.723-.533-2.601-1.422-3.065-1.517-1.437-.093-2.383-2.153-2.323-4.02.05-1.555-.412-1.728-.605-1.774-.23-.087-.426-.055-.66-.064-.466-.018-1.635.016-2.094-1.442.002-.077-.033-.196-.108-.276zm-2.735-13.256L11.163 18.9l2.293 4.323 8.005-4.686-1.705-1.3c-.182-.139-.307-.34-.35-.564l-.444-2.28z"/>
    </g>
</svg>
