<svg xmlns="http://www.w3.org/2000/svg" xmlns:xlink="http://www.w3.org/1999/xlink" width="60" height="60" viewBox="0 0 60 60">
    <defs>
        <path id="prefix__a" d="M1.13 8.516h4.873v16.982H1.131V8.516zm2.313-2.124h-.036C1.644 6.392.5 5.094.5 3.45.5 1.773 1.677.5 3.477.5 5.274.5 6.38 1.77 6.415 3.445c0 1.644-1.14 2.947-2.972 2.947zM25.5 25.5h-5.525v-8.79c0-2.3-.865-3.868-2.765-3.868-1.454 0-2.262 1.058-2.639 2.08-.14.365-.119.876-.119 1.388v9.19H8.978s.07-15.569 0-16.984h5.474v2.666c.324-1.166 2.073-2.829 4.864-2.829 3.463 0 6.184 2.444 6.184 7.703V25.5z"/>
    </defs>
    <g fill="none" fill-rule="evenodd" transform="translate(17 17)">
        <mask id="prefix__b" fill="#fff">
            <use xlink:href="#prefix__a"/>
        </mask>
        <g fill="#FFF" mask="url(#prefix__b)">
            <path d="M0 0H60V60H0z" transform="translate(-17 -17)"/>
        </g>
    </g>
</svg>
